<svg width="27" height="27" viewBox="0 0 27 27" fill="none" xmlns="http://www.w3.org/2000/svg">
<path d="M21.3125 2.5625V1H5.6875V2.5625H1V5.6875C1 6.9307 1.49386 8.12299 2.37294 9.00206C3.25201 9.88114 4.4443 10.375 5.6875 10.375H5.84495C6.18256 12.0023 7.03177 13.4791 8.26848 14.5894C9.50518 15.6997 11.0646 16.3853 12.7188 16.5462V19.75H5.6875V26H21.3125V19.75H14.2812V16.5462C15.9354 16.3853 17.4948 15.6997 18.7315 14.5894C19.9682 13.4791 20.8174 12.0023 21.155 10.375H21.3125C22.5557 10.375 23.748 9.88114 24.6271 9.00206C25.5061 8.12299 26 6.9307 26 5.6875V2.5625H21.3125ZM19.75 21.3125V24.4375H7.25V21.3125H19.75ZM2.5625 5.6875V4.125H5.6875V8.8125C4.85899 8.81155 4.06469 8.482 3.47884 7.89616C2.893 7.31031 2.56345 6.51601 2.5625 5.6875ZM13.5 15.0625C11.843 15.0606 10.2544 14.4015 9.08267 13.2298C7.91098 12.0581 7.25189 10.4695 7.25 8.8125V2.5625H19.75V8.8125C19.7481 10.4695 19.089 12.0581 17.9173 13.2298C16.7456 14.4015 15.157 15.0606 13.5 15.0625ZM24.4375 5.6875C24.4366 6.51601 24.107 7.31033 23.5212 7.89618C22.9353 8.48203 22.141 8.81157 21.3125 8.8125V4.125H24.4375V5.6875Z" fill="#8607EB" stroke="#8141E7" stroke-width="0.3"/>
</svg>
