<svg width="13" height="9" viewBox="0 0 13 9" fill="none" xmlns="http://www.w3.org/2000/svg">
<path d="M12.7486 5.11807L9.24026 8.74905C8.91697 9.08365 8.37816 9.08365 8.05487 8.74905C7.73158 8.41446 7.73158 7.8568 8.05487 7.5222L10.1263 5.36592H0.838158C0.371183 5.36592 0 4.98176 0 4.49845C0 4.01515 0.371183 3.63098 0.838158 3.63098H10.1263L8.05487 1.48709C7.73158 1.1525 7.73158 0.594836 8.05487 0.260241C8.2225 0.086747 8.43803 0 8.65355 0C8.86908 0 9.0846 0.086747 9.25224 0.260241L12.7486 3.87883C12.9042 4.03993 13 4.26299 13 4.49845C13 4.73391 12.9162 4.95697 12.7486 5.11807Z" fill="#3E83FF"/>
</svg>
