<svg width="16" height="16" viewBox="0 0 16 16" fill="none" xmlns="http://www.w3.org/2000/svg">
<path fill-rule="evenodd" clip-rule="evenodd" d="M3.24537 1.59631C3.10379 1.59601 2.96732 1.61203 2.83763 1.64249C2.65986 1.25066 2.42503 0.899131 2.15795 0.632049C1.70464 0.178736 0.989694 0 0 0V1.59429C0.604591 1.59429 0.952505 1.68126 1.03062 1.75938C1.33192 2.06068 1.59429 2.67287 1.59429 3.18857L1.6023 3.3013L2.38339 8.76897C1.07643 8.83678 0.0639289 9.85175 0.000979354 11.1205L0 11.9571C0.0771803 13.2676 1.08631 14.2757 2.34618 14.3473L2.52715 14.3476C2.85516 15.2769 3.74124 15.9429 4.78286 15.9429C5.8241 15.9429 6.70992 15.2774 7.03821 14.3486H8.90465C9.23294 15.2774 10.1188 15.9429 11.16 15.9429C12.4807 15.9429 13.5514 14.8722 13.5514 13.5514C13.5514 12.2307 12.4807 11.16 11.16 11.16C10.1188 11.16 9.23294 11.8255 8.90465 12.7543H7.03821C6.70992 11.8255 5.8241 11.16 4.78286 11.16C3.74161 11.16 2.8558 11.8255 2.52751 12.7543H2.39143C1.98489 12.7299 1.62022 12.3656 1.59285 11.9094L1.59429 11.16C1.61578 10.7465 1.97796 10.3844 2.43093 10.3619L4.0046 10.3623L4.01601 10.3629H12.0503L12.168 10.3255C12.7724 10.1337 13.2562 9.67861 13.4853 9.08944L13.5693 8.92323L13.8421 8.38265C14.1244 7.82309 14.4067 7.26257 14.6818 6.71497C15.3555 5.3736 15.7793 4.52112 15.8731 4.31179C16.355 3.23676 15.3788 2.40933 14.381 2.39172L3.24537 1.59631ZM11.7733 8.76876H4.07569C4.0245 8.75453 3.9855 8.71118 3.97786 8.65718L3.19674 3.18935L14.2636 3.98186C14.0699 4.37676 13.7179 5.08211 13.2571 5.99956L13.2455 6.02255C12.9825 6.54622 12.7006 7.10596 12.4187 7.66478L12.1462 8.20466L12.0429 8.40912L12.004 8.49951C11.9624 8.61552 11.8797 8.71085 11.7733 8.76876ZM11.16 14.3486C11.6002 14.3486 11.9571 13.9917 11.9571 13.5514C11.9571 13.1112 11.6002 12.7543 11.16 12.7543C10.7197 12.7543 10.3629 13.1112 10.3629 13.5514C10.3629 13.9917 10.7197 14.3486 11.16 14.3486ZM5.58 13.5514C5.58 13.9917 5.22311 14.3486 4.78286 14.3486C4.34261 14.3486 3.98571 13.9917 3.98571 13.5514C3.98571 13.1112 4.34261 12.7543 4.78286 12.7543C5.22311 12.7543 5.58 13.1112 5.58 13.5514Z" fill="#210D4A"/>
</svg>
