<svg width="59" height="59" viewBox="0 0 59 59" fill="none" xmlns="http://www.w3.org/2000/svg">
<path fill-rule="evenodd" clip-rule="evenodd" d="M4.91675 29.5C4.91675 15.93 15.9301 4.91663 29.5001 4.91663C43.0701 4.91663 54.0834 15.93 54.0834 29.5C54.0834 43.07 43.0701 54.0833 29.5001 54.0833C15.9301 54.0833 4.91675 43.07 4.91675 29.5ZM9.83342 29.5C9.83342 40.3658 18.6342 49.1666 29.5001 49.1666C40.3659 49.1666 49.1667 40.3658 49.1667 29.5C49.1667 18.6341 40.3659 9.83329 29.5001 9.83329C18.6342 9.83329 9.83342 18.6341 9.83342 29.5Z" fill="#28DC8E"/>
<path d="M24.5268 35.1975L20.0093 30.68L18.4709 32.2075L24.5268 38.2633L37.5268 25.2633L35.9993 23.7358L24.5268 35.1975Z" fill="#28DC8E" stroke="#28DC8E"/>
</svg>
