<svg width="16" height="17" viewBox="0 0 16 17" fill="none" xmlns="http://www.w3.org/2000/svg">
<path d="M12.0547 7.51818C12.3999 7.51818 12.6797 7.22554 12.6797 6.86456C12.6797 6.50357 12.3999 6.21094 12.0547 6.21094C11.7095 6.21094 11.4297 6.50357 11.4297 6.86456C11.4297 7.22554 11.7095 7.51818 12.0547 7.51818Z" fill="#3E83FF"/>
<path d="M13.4906 1.30724H12.6786V0.65362C12.6786 0.292626 12.399 0 12.0541 0C11.7091 0 11.4295 0.292626 11.4295 0.65362V1.30724H8.58775V0.65362C8.58775 0.292626 8.30813 0 7.96319 0C7.61824 0 7.33862 0.292626 7.33862 0.65362V1.30724H4.52809V0.65362C4.52809 0.292626 4.24847 0 3.90352 0C3.55858 0 3.27896 0.292626 3.27896 0.65362V1.30724H2.49825C1.12072 1.30724 0 2.48009 0 3.92172V14.1182C0 15.5598 1.12072 16.7327 2.49825 16.7327H7.27617C7.62111 16.7327 7.90073 16.44 7.90073 16.079C7.90073 15.7181 7.62111 15.4254 7.27617 15.4254H2.49825C1.80949 15.4254 1.24913 14.839 1.24913 14.1182V3.92172C1.24913 3.20091 1.80949 2.61448 2.49825 2.61448H3.27896V3.2681C3.27896 3.62909 3.55858 3.92172 3.90352 3.92172C4.24847 3.92172 4.52809 3.62909 4.52809 3.2681V2.61448H7.33862V3.2681C7.33862 3.62909 7.61824 3.92172 7.96319 3.92172C8.30813 3.92172 8.58775 3.62909 8.58775 3.2681V2.61448H11.4295V3.2681C11.4295 3.62909 11.7091 3.92172 12.0541 3.92172C12.399 3.92172 12.6786 3.62909 12.6786 3.2681V2.61448H13.4906C14.1793 2.61448 14.7397 3.20091 14.7397 3.92172V7.64735C14.7397 8.00835 15.0193 8.30097 15.3643 8.30097C15.7092 8.30097 15.9888 8.00835 15.9888 7.64735V3.92172C15.9888 2.48009 14.8681 1.30724 13.4906 1.30724Z" fill="#3E83FF"/>
<path d="M12.2102 8.82422C10.1267 8.82422 8.43164 10.5981 8.43164 12.7786C8.43164 14.9591 10.1267 16.733 12.2102 16.733C14.2938 16.733 15.9888 14.9591 15.9888 12.7786C15.9888 10.5981 14.2938 8.82422 12.2102 8.82422ZM12.2102 15.4258C10.8155 15.4258 9.68076 14.2383 9.68076 12.7786C9.68076 11.319 10.8155 10.1315 12.2102 10.1315C13.605 10.1315 14.7397 11.319 14.7397 12.7786C14.7397 14.2383 13.605 15.4258 12.2102 15.4258Z" fill="#3E83FF"/>
<path d="M13.0771 12.4962H12.796V11.8099C12.796 11.4489 12.5164 11.1562 12.1715 11.1562C11.8265 11.1562 11.5469 11.4489 11.5469 11.8099V13.1498C11.5469 13.5108 11.8265 13.8034 12.1715 13.8034H13.0771C13.422 13.8034 13.7017 13.5108 13.7017 13.1498C13.7017 12.7888 13.422 12.4962 13.0771 12.4962Z" fill="#3E83FF"/>
<path d="M9.33789 7.51818C9.68307 7.51818 9.96289 7.22554 9.96289 6.86456C9.96289 6.50357 9.68307 6.21094 9.33789 6.21094C8.99271 6.21094 8.71289 6.50357 8.71289 6.86456C8.71289 7.22554 8.99271 7.51818 9.33789 7.51818Z" fill="#3E83FF"/>
<path d="M6.62109 10.3619C6.96627 10.3619 7.24609 10.0693 7.24609 9.70831C7.24609 9.34732 6.96627 9.05469 6.62109 9.05469C6.27592 9.05469 5.99609 9.34732 5.99609 9.70831C5.99609 10.0693 6.27592 10.3619 6.62109 10.3619Z" fill="#3E83FF"/>
<path d="M3.9043 7.51818C4.24947 7.51818 4.5293 7.22554 4.5293 6.86456C4.5293 6.50357 4.24947 6.21094 3.9043 6.21094C3.55912 6.21094 3.2793 6.50357 3.2793 6.86456C3.2793 7.22554 3.55912 7.51818 3.9043 7.51818Z" fill="#3E83FF"/>
<path d="M3.9043 10.3619C4.24947 10.3619 4.5293 10.0693 4.5293 9.70831C4.5293 9.34732 4.24947 9.05469 3.9043 9.05469C3.55912 9.05469 3.2793 9.34732 3.2793 9.70831C3.2793 10.0693 3.55912 10.3619 3.9043 10.3619Z" fill="#3E83FF"/>
<path d="M3.9043 13.2018C4.24947 13.2018 4.5293 12.9091 4.5293 12.5482C4.5293 12.1872 4.24947 11.8945 3.9043 11.8945C3.55912 11.8945 3.2793 12.1872 3.2793 12.5482C3.2793 12.9091 3.55912 13.2018 3.9043 13.2018Z" fill="#3E83FF"/>
<path d="M6.62109 13.2018C6.96627 13.2018 7.24609 12.9091 7.24609 12.5482C7.24609 12.1872 6.96627 11.8945 6.62109 11.8945C6.27592 11.8945 5.99609 12.1872 5.99609 12.5482C5.99609 12.9091 6.27592 13.2018 6.62109 13.2018Z" fill="#3E83FF"/>
<path d="M6.62109 7.51818C6.96627 7.51818 7.24609 7.22554 7.24609 6.86456C7.24609 6.50357 6.96627 6.21094 6.62109 6.21094C6.27592 6.21094 5.99609 6.50357 5.99609 6.86456C5.99609 7.22554 6.27592 7.51818 6.62109 7.51818Z" fill="#3E83FF"/>
</svg>
