<svg width="13" height="13" viewBox="0 0 13 13" fill="none" xmlns="http://www.w3.org/2000/svg">
<path fill-rule="evenodd" clip-rule="evenodd" d="M7.09091 3.54545V1.21428C9.74997 1.50822 11.8182 3.76258 11.8182 6.5C11.8182 9.43715 9.43715 11.8182 6.5 11.8182C3.56285 11.8182 1.18182 9.43715 1.18182 6.5C1.18182 5.06632 1.75096 3.7243 2.74654 2.73243L1.91243 1.8952C0.696469 3.10663 0 4.74889 0 6.5C0 10.0899 2.91015 13 6.5 13C10.0899 13 13 10.0899 13 6.5C13 2.91015 10.0899 0 6.5 0H5.90909V3.54545H7.09091ZM6.49996 5.31905C6.39409 5.31905 6.29148 5.33297 6.19385 5.35908L3.96325 3.12849L3.12758 3.96416L5.35817 6.19475C5.33206 6.29239 5.31814 6.395 5.31814 6.50087C5.31814 7.15357 5.84726 7.68269 6.49996 7.68269C7.15266 7.68269 7.68178 7.15357 7.68178 6.50087C7.68178 5.84817 7.15266 5.31905 6.49996 5.31905Z" fill="#3E83FF"/>
</svg>
