<svg width="13" height="13" viewBox="0 0 13 13" fill="none" xmlns="http://www.w3.org/2000/svg">
<g clip-path="url(#clip0)">
<path d="M4.55094 8.45013C4.29094 8.19013 3.90094 8.19013 3.64094 8.45013L0.780938 11.3101C0.520938 11.5701 0.520938 11.9601 0.780938 12.2201C1.04094 12.4801 1.43094 12.4801 1.69094 12.2201L4.55094 9.36013C4.81094 9.10013 4.81094 8.71013 4.55094 8.45013Z" fill="#E22626"/>
<path d="M1.75539 9.35989L3.12039 7.99489C3.38039 7.73489 3.38039 7.34489 3.12039 7.08489C2.86039 6.82489 2.47039 6.82489 2.21039 7.08489L0.845391 8.44989C0.585391 8.70989 0.585391 9.09989 0.845391 9.35989C1.10539 9.61989 1.49539 9.61989 1.75539 9.35989Z" fill="#E22626"/>
<path d="M5.00531 9.8148L3.64031 11.1798C3.38031 11.4398 3.38031 11.8298 3.64031 12.0898C3.90031 12.3498 4.29031 12.3498 4.55031 12.0898L5.91531 10.7248C6.17531 10.4648 6.17531 10.0748 5.91531 9.8148C5.65531 9.5548 5.26531 9.6198 5.00531 9.8148Z" fill="#E22626"/>
<path d="M9.425 8.12453C11.57 6.23953 12.935 3.57453 13 0.649535C13 0.259535 12.675 -0.0654654 12.35 -0.000465447C9.49 0.0645346 6.76 1.42953 4.875 3.57453L2.47 2.79453C2.21 2.72953 1.95 2.79453 1.82 2.92453L0.195 4.54953C-0.065 4.80953 -0.065 5.19953 0.195 5.45953C0.455 5.71953 0.845 5.71953 1.105 5.45953L2.405 4.15953L4.03 4.67953C3.77 5.00453 3.575 5.39453 3.38 5.71953C3.25 5.97953 3.315 6.30453 3.51 6.49953L6.5 9.48953C6.695 9.68454 7.02 9.74953 7.28 9.61953C7.67 9.42453 7.995 9.22953 8.32 8.96953L8.84 10.5945L7.54 11.8945C7.28 12.1545 7.28 12.5445 7.54 12.8045C7.8 13.0645 8.19 13.0645 8.45 12.8045L10.01 11.2445C10.205 11.0495 10.27 10.7895 10.14 10.5945L9.425 8.12453ZM7.085 8.25453L4.745 5.91454C6.24 3.37953 8.775 1.68953 11.635 1.36453C11.31 4.22453 9.62 6.75953 7.085 8.25453Z" fill="#E22626"/>
</g>
<defs>
<clipPath id="clip0">
<rect width="13" height="13" fill="white"/>
</clipPath>
</defs>
</svg>
