<svg width="23" height="27" viewBox="0 0 23 27" fill="none" xmlns="http://www.w3.org/2000/svg">
<path fill-rule="evenodd" clip-rule="evenodd" d="M21.9699 7.65363L21.9691 7.63404C21.9582 7.39219 21.9509 7.13633 21.9465 6.85165C21.9259 5.46341 20.8223 4.3151 19.4339 4.23749C16.5391 4.07594 14.2997 3.13201 12.3863 1.267L12.37 1.25144C11.7459 0.679206 10.8044 0.679206 10.1801 1.25144L10.1638 1.267C8.2504 3.13201 6.01101 4.07594 3.11621 4.23768C1.72797 4.3151 0.624215 5.46341 0.603662 6.85184C0.599436 7.1346 0.591944 7.39046 0.580995 7.63404L0.579842 7.67956C0.52356 10.6314 0.453639 14.3051 1.68263 17.6396C2.35841 19.4733 3.38187 21.0673 4.72439 22.3776C6.25343 23.8697 8.25616 25.0543 10.6769 25.8984C10.7556 25.9259 10.8375 25.9481 10.9208 25.9648C11.0384 25.9883 11.1567 26 11.2751 26C11.3934 26 11.5119 25.9883 11.6293 25.9648C11.7126 25.9481 11.795 25.9257 11.8742 25.898C14.292 25.0524 16.2927 23.8672 17.8204 22.3753C19.1623 21.0646 20.1858 19.4703 20.8621 17.6362C22.0957 14.2917 22.026 10.6111 21.9699 7.65363ZM19.476 17.125C18.1798 20.6395 15.5337 23.0531 11.3867 24.5034C11.3719 24.5084 11.3561 24.5128 11.3398 24.5161C11.297 24.5246 11.2534 24.5246 11.2099 24.5159C11.1938 24.5126 11.1781 24.5084 11.1635 24.5034C7.01199 23.0558 4.36422 20.6436 3.06895 17.1289C1.93619 14.0552 2.00035 10.6829 2.05702 7.7078L2.0574 7.69128C2.06893 7.43561 2.07661 7.16783 2.08084 6.87355C2.09006 6.25713 2.58104 5.74713 3.19861 5.71275C4.83676 5.62131 6.2759 5.30475 7.59825 4.74499C8.91888 4.18601 10.0918 3.39806 11.1836 2.33618C11.2391 2.28931 11.3112 2.28912 11.3665 2.33618C12.4585 3.39806 13.6314 4.18601 14.9519 4.74499C16.2742 5.30475 17.7134 5.62131 19.3517 5.71275C19.9693 5.74713 20.4603 6.25713 20.4693 6.87374C20.4737 7.16956 20.4814 7.43733 20.4929 7.69128C20.5494 10.6698 20.612 14.0449 19.476 17.125ZM11.2743 7.13718C7.81436 7.13718 4.99965 9.95208 4.99965 13.4118C4.99965 16.8718 7.81436 19.6867 11.2743 19.6867C14.7341 19.6867 17.549 16.8718 17.549 13.4118C17.549 9.95208 14.7341 7.13718 11.2743 7.13718ZM11.2743 18.2091C8.62902 18.2091 6.47702 16.0571 6.47702 13.4118C6.47702 10.7666 8.62902 8.61455 11.2743 8.61455C13.9194 8.61455 16.0714 10.7666 16.0714 13.4118C16.0714 16.0571 13.9194 18.2091 11.2743 18.2091ZM10.1634 14.378L13.0778 11.4636C13.3663 11.1749 13.834 11.1749 14.1225 11.4636C14.4109 11.7519 14.4109 12.2197 14.1225 12.5082L10.6857 15.9451C10.5414 16.0893 10.3524 16.1614 10.1634 16.1614C9.97434 16.1614 9.78532 16.0893 9.64106 15.9451L8.32754 14.6316C8.03921 14.3432 8.03921 13.8755 8.32754 13.587C8.61606 13.2985 9.08381 13.2985 9.37232 13.587L10.1634 14.378Z" fill="#FF9554"/>
<path d="M21.9691 7.63404L22.2189 7.62423L22.2189 7.62273L21.9691 7.63404ZM21.9699 7.65363L22.2199 7.64889L22.2197 7.64383L21.9699 7.65363ZM21.9465 6.85165L21.6965 6.85535L21.6965 6.85553L21.9465 6.85165ZM19.4339 4.23749L19.4479 3.98788L19.4478 3.98788L19.4339 4.23749ZM12.3863 1.267L12.5608 1.08797L12.5588 1.08602L12.3863 1.267ZM12.37 1.25144L12.5425 1.07043L12.5389 1.06718L12.37 1.25144ZM10.1801 1.25144L10.0112 1.06712L10.0077 1.07046L10.1801 1.25144ZM10.1638 1.267L9.99134 1.08601L9.98932 1.08798L10.1638 1.267ZM3.11621 4.23768L3.13012 4.4873L3.13015 4.48729L3.11621 4.23768ZM0.603662 6.85184L0.853634 6.85558L0.853634 6.85554L0.603662 6.85184ZM0.580995 7.63404L0.331199 7.62281L0.331075 7.62771L0.580995 7.63404ZM0.579842 7.67956L0.329918 7.67323L0.329888 7.67479L0.579842 7.67956ZM1.68263 17.6396L1.91721 17.5532L1.91721 17.5532L1.68263 17.6396ZM4.72439 22.3776L4.54977 22.5565L4.54978 22.5565L4.72439 22.3776ZM10.6769 25.8984L10.7592 25.6623L10.7592 25.6623L10.6769 25.8984ZM10.9208 25.9648L10.8717 26.21L10.872 26.21L10.9208 25.9648ZM11.6293 25.9648L11.6782 26.21L11.6784 26.21L11.6293 25.9648ZM11.8742 25.898L11.9567 26.134L11.9567 26.134L11.8742 25.898ZM17.8204 22.3753L17.995 22.5541L17.995 22.5541L17.8204 22.3753ZM20.8621 17.6362L20.6276 17.5497L20.6275 17.5497L20.8621 17.6362ZM11.3867 24.5034L11.4666 24.7403L11.4692 24.7394L11.3867 24.5034ZM19.476 17.125L19.7105 17.2115L19.7105 17.2115L19.476 17.125ZM11.3398 24.5161L11.3882 24.7614L11.3888 24.7612L11.3398 24.5161ZM11.2099 24.5159L11.1604 24.7609L11.1611 24.7611L11.2099 24.5159ZM11.1635 24.5034L11.0811 24.7395L11.0825 24.74L11.1635 24.5034ZM3.06895 17.1289L3.30353 17.0424L3.30353 17.0424L3.06895 17.1289ZM2.05702 7.7078L1.80708 7.70199L1.80706 7.70304L2.05702 7.7078ZM2.0574 7.69128L1.8076 7.68002L1.80747 7.68547L2.0574 7.69128ZM2.08084 6.87355L1.83087 6.86981L1.83086 6.86996L2.08084 6.87355ZM3.19861 5.71275L3.21251 5.96236L3.21254 5.96236L3.19861 5.71275ZM7.59825 4.74499L7.50081 4.51477L7.5008 4.51477L7.59825 4.74499ZM11.1836 2.33618L11.0223 2.14516L11.0156 2.15083L11.0093 2.15696L11.1836 2.33618ZM11.3665 2.33618L11.5408 2.15694L11.5348 2.15115L11.5285 2.14576L11.3665 2.33618ZM14.9519 4.74499L14.8544 4.97521L14.8544 4.97522L14.9519 4.74499ZM19.3517 5.71275L19.3378 5.96236L19.3378 5.96236L19.3517 5.71275ZM20.4693 6.87374L20.2193 6.8774L20.2193 6.87748L20.4693 6.87374ZM20.4929 7.69128L20.7429 7.68654L20.7426 7.67994L20.4929 7.69128ZM13.0778 11.4636L13.2545 11.6404L13.2546 11.6403L13.0778 11.4636ZM10.1634 14.378L9.98658 14.5548L10.1634 14.7316L10.3401 14.5548L10.1634 14.378ZM14.1225 11.4636L13.9457 11.6403L13.9458 11.6404L14.1225 11.4636ZM14.1225 12.5082L14.2993 12.685L14.2994 12.6849L14.1225 12.5082ZM8.32754 14.6316L8.15077 14.8083L8.32754 14.6316ZM8.32754 13.587L8.15077 13.4102L8.15071 13.4103L8.32754 13.587ZM9.37232 13.587L9.19555 13.7638L9.37232 13.587ZM21.7193 7.64384L21.7201 7.66343L22.2197 7.64383L22.2189 7.62424L21.7193 7.64384ZM21.6965 6.85553C21.7009 7.14215 21.7083 7.40054 21.7194 7.64534L22.2189 7.62273C22.208 7.38384 22.2008 7.13051 22.1964 6.84777L21.6965 6.85553ZM19.42 4.4871C20.6777 4.5574 21.6779 5.59863 21.6965 6.85535L22.1964 6.84795C22.1739 5.32819 20.967 4.07279 19.4479 3.98788L19.42 4.4871ZM12.2118 1.44603C14.1723 3.3569 16.4704 4.3225 19.42 4.4871L19.4478 3.98788C16.6078 3.82939 14.4272 2.90712 12.5608 1.08798L12.2118 1.44603ZM12.1975 1.43243L12.2138 1.44799L12.5588 1.08602L12.5424 1.07046L12.1975 1.43243ZM10.3491 1.43574C10.8778 0.951095 11.6725 0.951131 12.201 1.43571L12.5389 1.06718C11.8192 0.407282 10.7311 0.407318 10.0112 1.06715L10.3491 1.43574ZM10.3363 1.44799L10.3526 1.43243L10.0077 1.07046L9.99135 1.08602L10.3363 1.44799ZM3.13015 4.48729C6.0797 4.32249 8.37784 3.3569 10.3383 1.44603L9.98932 1.08798C8.12296 2.90712 5.94232 3.82939 3.10226 3.98807L3.13015 4.48729ZM0.853634 6.85554C0.872241 5.59863 1.87263 4.55742 3.13012 4.4873L3.10229 3.98807C1.58331 4.07277 0.37619 5.3282 0.353689 6.84814L0.853634 6.85554ZM0.830743 7.64526C0.841817 7.39891 0.849375 7.14053 0.853634 6.85558L0.35369 6.84811C0.349496 7.12867 0.342071 7.38202 0.331247 7.62281L0.830743 7.64526ZM0.829762 7.68589L0.830915 7.64036L0.331075 7.62771L0.329922 7.67323L0.829762 7.68589ZM1.91721 17.5532C0.707077 14.2699 0.773374 10.6436 0.829797 7.68433L0.329888 7.67479C0.273746 10.6193 0.200201 14.3404 1.44806 17.7261L1.91721 17.5532ZM4.899 22.1986C3.58421 20.9155 2.58067 19.3535 1.91721 17.5532L1.44806 17.7261C2.13615 19.5932 3.17953 21.2192 4.54977 22.5565L4.899 22.1986ZM10.7592 25.6623C8.36624 24.828 6.39711 23.6606 4.89899 22.1986L4.54978 22.5565C6.10974 24.0788 8.14609 25.2807 10.5946 26.1344L10.7592 25.6623ZM10.97 25.7197C10.8976 25.7052 10.8269 25.6859 10.7592 25.6623L10.5946 26.1344C10.6844 26.1658 10.7773 26.1911 10.8717 26.21L10.97 25.7197ZM11.2751 25.75C11.1733 25.75 11.0713 25.7399 10.9697 25.7197L10.872 26.21C11.0055 26.2366 11.1402 26.25 11.2751 26.25V25.75ZM11.5803 25.7197C11.479 25.7399 11.3769 25.75 11.2751 25.75V26.25C11.4099 26.25 11.5448 26.2366 11.6782 26.21L11.5803 25.7197ZM11.7917 25.662C11.7237 25.6858 11.6524 25.7052 11.5801 25.7197L11.6784 26.21C11.7729 26.191 11.8664 26.1655 11.9567 26.134L11.7917 25.662ZM17.6457 22.1964C16.1488 23.6582 14.1818 24.8261 11.7917 25.662L11.9567 26.134C14.4023 25.2787 16.4365 24.0762 17.995 22.5541L17.6457 22.1964ZM20.6275 17.5497C19.9635 19.3504 18.9599 20.9128 17.6457 22.1964L17.995 22.5541C19.3647 21.2164 20.408 19.5901 21.0967 17.7227L20.6275 17.5497ZM21.7199 7.65837C21.7762 10.6231 21.8423 14.2564 20.6276 17.5497L21.0967 17.7227C22.3491 14.327 22.2758 10.599 22.2198 7.64889L21.7199 7.65837ZM11.4692 24.7394C15.6731 23.2692 18.3839 20.8085 19.7105 17.2115L19.2414 17.0385C17.9756 20.4706 15.3943 22.8371 11.3041 24.2674L11.4692 24.7394ZM11.3888 24.7612C11.4172 24.7556 11.4434 24.7481 11.4666 24.7403L11.3067 24.2666C11.3004 24.2687 11.295 24.2701 11.2908 24.271L11.3888 24.7612ZM11.1611 24.7611C11.2365 24.7761 11.3132 24.7762 11.3882 24.7614L11.2914 24.2708C11.2807 24.2729 11.2702 24.273 11.2588 24.2707L11.1611 24.7611ZM11.0825 24.74C11.1081 24.7487 11.1344 24.7557 11.1604 24.7609L11.2595 24.2709C11.2532 24.2696 11.248 24.2681 11.2444 24.2669L11.0825 24.74ZM2.83437 17.2153C4.1601 20.8127 6.87277 23.272 11.0811 24.7395L11.2458 24.2674C7.15122 22.8396 4.56834 20.4745 3.30353 17.0424L2.83437 17.2153ZM1.80706 7.70304C1.75055 10.6699 1.68266 14.0902 2.83437 17.2153L3.30353 17.0424C2.18973 14.0202 2.25015 10.6959 2.30697 7.71256L1.80706 7.70304ZM1.80747 7.68547L1.80709 7.70199L2.30695 7.71361L2.30734 7.69709L1.80747 7.68547ZM1.83086 6.86996C1.82667 7.16204 1.81905 7.42724 1.80766 7.68002L2.30715 7.70254C2.3188 7.44397 2.32655 7.17362 2.33081 6.87714L1.83086 6.86996ZM3.18471 5.46313C2.43676 5.50478 1.84206 6.12153 1.83087 6.86981L2.33081 6.87729C2.33806 6.39273 2.72532 5.98948 3.21251 5.96236L3.18471 5.46313ZM7.5008 4.51477C6.20845 5.06182 4.79812 5.37308 3.18468 5.46313L3.21254 5.96236C4.8754 5.86954 6.34335 5.54767 7.69571 4.97522L7.5008 4.51477ZM11.0093 2.15696C9.93832 3.19856 8.79114 3.96861 7.50081 4.51477L7.6957 4.97522C9.04661 4.40342 10.2452 3.59755 11.3579 2.5154L11.0093 2.15696ZM11.5285 2.14576C11.3792 2.01874 11.1704 2.02016 11.0223 2.14516L11.3449 2.5272C11.3312 2.53881 11.3069 2.55093 11.2753 2.55095C11.2436 2.55098 11.2188 2.53877 11.2045 2.5266L11.5285 2.14576ZM15.0493 4.51477C13.7592 3.96861 12.612 3.19856 11.5408 2.15694L11.1922 2.51541C12.3051 3.59755 13.5037 4.40341 14.8544 4.97521L15.0493 4.51477ZM19.3656 5.46313C17.752 5.37308 16.3417 5.06182 15.0493 4.51477L14.8544 4.97522C16.2068 5.54767 17.6747 5.86954 19.3378 5.96236L19.3656 5.46313ZM20.7193 6.87008C20.7083 6.12156 20.1136 5.50478 19.3656 5.46313L19.3378 5.96236C19.825 5.98948 20.2122 6.3927 20.2193 6.8774L20.7193 6.87008ZM20.7426 7.67994C20.7313 7.42895 20.7236 7.16375 20.7192 6.87001L20.2193 6.87748C20.2238 7.17538 20.2315 7.44572 20.2432 7.70261L20.7426 7.67994ZM19.7105 17.2115C20.8655 14.08 20.7992 10.657 20.7429 7.68654L20.243 7.69602C20.2996 10.6826 20.3585 14.0098 19.2414 17.0385L19.7105 17.2115ZM5.24965 13.4118C5.24965 10.0902 7.95244 7.38718 11.2743 7.38718V6.88718C7.67628 6.88718 4.74965 9.81402 4.74965 13.4118H5.24965ZM11.2743 19.4367C7.95244 19.4367 5.24965 16.7337 5.24965 13.4118H4.74965C4.74965 17.0098 7.67628 19.9367 11.2743 19.9367V19.4367ZM17.299 13.4118C17.299 16.7337 14.596 19.4367 11.2743 19.4367V19.9367C14.8721 19.9367 17.799 17.0098 17.799 13.4118H17.299ZM11.2743 7.38718C14.596 7.38718 17.299 10.0902 17.299 13.4118H17.799C17.799 9.81401 14.8721 6.88718 11.2743 6.88718V7.38718ZM6.22702 13.4118C6.22702 16.1952 8.49095 18.4591 11.2743 18.4591V17.9591C8.76709 17.9591 6.72702 15.9191 6.72702 13.4118H6.22702ZM11.2743 8.36455C8.49095 8.36455 6.22702 10.6285 6.22702 13.4118H6.72702C6.72702 10.9046 8.76709 8.86455 11.2743 8.86455V8.36455ZM16.3214 13.4118C16.3214 10.6285 14.0575 8.36455 11.2743 8.36455V8.86455C13.7813 8.86455 15.8214 10.9046 15.8214 13.4118H16.3214ZM11.2743 18.4591C14.0575 18.4591 16.3214 16.1952 16.3214 13.4118H15.8214C15.8214 15.9191 13.7813 17.9591 11.2743 17.9591V18.4591ZM12.901 11.2868L9.98658 14.2012L10.3401 14.5548L13.2545 11.6404L12.901 11.2868ZM14.2994 11.2869C13.9132 10.9005 13.2871 10.9005 12.9009 11.2869L13.2546 11.6403C13.4455 11.4493 13.7548 11.4493 13.9457 11.6403L14.2994 11.2869ZM14.2994 12.6849C14.6852 12.2988 14.6853 11.6728 14.2993 11.2868L13.9458 11.6404C14.1364 11.831 14.1365 12.1405 13.9457 12.3315L14.2994 12.6849ZM10.8624 16.1219L14.2993 12.685L13.9458 12.3314L10.5089 15.7683L10.8624 16.1219ZM10.1634 16.4114C10.4159 16.4114 10.6694 16.3149 10.8624 16.1219L10.5089 15.7683C10.4134 15.8638 10.2888 15.9114 10.1634 15.9114V16.4114ZM9.46428 16.1219C9.65735 16.3149 9.9108 16.4114 10.1634 16.4114V15.9114C10.0379 15.9114 9.91329 15.8638 9.81784 15.7683L9.46428 16.1219ZM8.15077 14.8083L9.46428 16.1219L9.81784 15.7683L8.50432 14.4548L8.15077 14.8083ZM8.15071 13.4103C7.76486 13.7964 7.76477 14.4224 8.15077 14.8083L8.50432 14.4548C8.31365 14.2641 8.31357 13.9546 8.50438 13.7637L8.15071 13.4103ZM9.5491 13.4102C9.16295 13.024 8.53692 13.024 8.15077 13.4102L8.50432 13.7638C8.69521 13.5729 9.00466 13.5729 9.19555 13.7638L9.5491 13.4102ZM10.3401 14.2012L9.5491 13.4102L9.19555 13.7638L9.98658 14.5548L10.3401 14.2012Z" fill="#FF9554"/>
</svg>
