<svg width="22" height="27" viewBox="0 0 22 27" fill="none" xmlns="http://www.w3.org/2000/svg">
<path fill-rule="evenodd" clip-rule="evenodd" d="M15.1729 0H2.44444C1.09441 0 0 1.09441 0 2.44444V24.4444C0 25.7945 1.09441 26.8889 2.44444 26.8889H19.5556C20.9056 26.8889 22 25.7945 22 24.4444V6.82707L15.1729 0ZM2.44444 2.44444H12.2222V7.33333C12.2222 8.68336 13.3166 9.77778 14.6667 9.77778H19.5556V24.4444H2.44444V2.44444ZM14.6667 7.33333V2.9507L19.0493 7.33333H14.6667ZM15.0247 12.5803L9.77787 17.8272L6.97544 15.0247L5.24696 16.7532L9.77787 21.2841L16.7532 14.3088L15.0247 12.5803Z" fill="#8141E7"/>
</svg>
