<svg width="33" height="29" viewBox="0 0 33 29" fill="none" xmlns="http://www.w3.org/2000/svg">
<path fill-rule="evenodd" clip-rule="evenodd" d="M13.6662 0H20.1107C21.8903 0 23.3329 1.44264 23.3329 3.22222V4.83333H29.7773C31.5569 4.83333 32.9996 6.27597 32.9996 8.05556V25.7778C32.9996 27.5574 31.5569 29 29.7773 29H3.99957C2.21998 29 0.777344 27.5574 0.777344 25.7778V8.05556C0.777344 6.27597 2.21998 4.83333 3.99957 4.83333H10.444V3.22222C10.444 1.44264 11.8866 0 13.6662 0ZM3.99951 25.7781V19.3333H15.2773V20.9444H18.4996V19.3333H29.7773V25.7781H3.99951ZM18.4996 16.1111H29.7773V8.05588H3.99951V16.1111H15.2773H18.4996ZM19.9995 3V5H13.9995V3H19.9995Z" fill="#3E83FF"/>
</svg>
