<svg width="27" height="33" viewBox="0 0 27 33" fill="none" xmlns="http://www.w3.org/2000/svg">
<path fill-rule="evenodd" clip-rule="evenodd" d="M13.4912 33C4.49707 28.9932 0 24.9958 0 21.0078V6.01757C0 4.86693 0.44161 4.59952 1.66381 3.85941C2.03386 3.63533 2.47547 3.36791 2.99804 3.01953C3.24058 2.85784 8.33937 0.0214844 13.4912 0.0214844C17.9811 0.0214844 21.7358 1.52051 23.9843 3.01953C24.5069 3.3679 24.9485 3.63531 25.3186 3.8594L25.3186 3.85941C26.5408 4.59952 26.9824 4.86693 26.9824 6.01757C27.0119 6.34319 26.9974 13.2675 26.9881 17.701V17.702C26.985 19.2139 26.9824 20.436 26.9824 21.0078C26.9824 25.0052 22.4853 29.0026 13.4912 33ZM23.9844 21.0075C23.9844 20.6623 23.9853 20.0838 23.9871 19.1408L23.9932 16.2128C23.9951 15.2655 23.9966 14.4527 23.9979 13.677C24.0034 10.3309 24.002 7.45908 23.9987 6.57086L23.7928 6.44305L23.7928 6.44302C23.308 6.14231 22.6763 5.75037 22.3214 5.51377C20.1084 4.03846 16.8793 3.01925 13.4912 3.01925C10.2505 3.01925 6.03904 4.59514 4.66108 5.51377C4.30617 5.75038 3.67438 6.14233 3.18964 6.44305L2.99807 6.56194V21.0075C2.99807 23.2687 6.33955 26.3571 13.4926 29.7048C20.6448 26.3646 23.9844 23.2774 23.9844 21.0075ZM18.4276 10.9543L11.9924 17.3894L8.55533 13.9523L6.43539 16.0723L11.9924 21.6293L20.5475 13.0742L18.4276 10.9543Z" fill="#28DC8E"/>
</svg>
