<svg width="9" height="14" viewBox="0 0 9 14" fill="none" xmlns="http://www.w3.org/2000/svg">
<path d="M8.32897 3.47676H6.38278L7.516 0.753361C7.55184 0.668114 7.56283 0.57688 7.54805 0.487322C7.53326 0.397763 7.49313 0.312497 7.43104 0.238685C7.36894 0.164873 7.28668 0.104672 7.19118 0.0631386C7.09568 0.0216052 6.98972 -4.71389e-05 6.88221 2.70594e-07H3.16228C3.01719 -0.000119102 2.87596 0.0392606 2.75969 0.112251C2.64343 0.185241 2.55839 0.287919 2.51728 0.404931L0.0268749 7.5336C-0.00233047 7.61781 -0.0078212 7.70658 0.0108374 7.79288C0.029496 7.87919 0.0717914 7.96065 0.134374 8.03082C0.196957 8.101 0.278108 8.15795 0.371401 8.19718C0.464694 8.23641 0.567567 8.25683 0.671872 8.25683H2.23957L1.87228 13.4004C1.86285 13.5298 1.9066 13.6579 1.99619 13.7634C2.08579 13.8689 2.21578 13.9452 2.36437 13.9797C2.51296 14.0141 2.67112 14.0046 2.81231 13.9526C2.95351 13.9006 3.06917 13.8094 3.13988 13.6942L8.9247 4.30169C8.97772 4.21561 9.00352 4.11952 8.99961 4.02263C8.99571 3.92575 8.96223 3.83134 8.90239 3.74849C8.84256 3.66563 8.75838 3.59712 8.65796 3.54953C8.55753 3.50194 8.44424 3.47688 8.32897 3.47676ZM3.40191 10.8013L3.62587 7.72571C3.63137 7.64871 3.61807 7.57158 3.58678 7.49906C3.55548 7.42655 3.50687 7.36019 3.44392 7.30408C3.38098 7.24797 3.30503 7.20329 3.22077 7.1728C3.13652 7.14231 3.04572 7.12665 2.954 7.12679H1.5789L3.66618 1.13192H5.93487L4.80164 3.85532C4.7658 3.94057 4.75482 4.0318 4.7696 4.12136C4.78439 4.21092 4.82451 4.29619 4.88661 4.37C4.94871 4.44381 5.03096 4.50401 5.12646 4.54554C5.22197 4.58708 5.32793 4.60873 5.43544 4.60868H7.2271L3.40191 10.8013Z" fill="#3E83FF"/>
</svg>
