<svg width="124" height="31" viewBox="0 0 124 31" fill="none" xmlns="http://www.w3.org/2000/svg">
<path d="M45.2217 20L44.7319 18.7383H44.6655C44.2394 19.2751 43.7995 19.6486 43.3457 19.8589C42.8975 20.0636 42.3109 20.166 41.5859 20.166C40.695 20.166 39.9922 19.9115 39.4775 19.4023C38.9684 18.8932 38.7139 18.1683 38.7139 17.2275C38.7139 16.2425 39.057 15.5176 39.7432 15.0527C40.4349 14.5824 41.4753 14.3223 42.8643 14.2725L44.4746 14.2227V13.8159C44.4746 12.8752 43.9932 12.4048 43.0303 12.4048C42.2887 12.4048 41.4172 12.6289 40.4155 13.0771L39.5771 11.3672C40.6452 10.8083 41.8294 10.5288 43.1299 10.5288C44.375 10.5288 45.3296 10.8 45.9937 11.3423C46.6577 11.8846 46.9897 12.7091 46.9897 13.8159V20H45.2217ZM44.4746 15.7002L43.4951 15.7334C42.7591 15.7555 42.2113 15.8883 41.8516 16.1318C41.4919 16.3753 41.312 16.7461 41.312 17.2441C41.312 17.958 41.7215 18.3149 42.5405 18.3149C43.1271 18.3149 43.5947 18.1462 43.9434 17.8086C44.2975 17.471 44.4746 17.0228 44.4746 16.4639V15.7002ZM53.373 20.166C50.4844 20.166 49.04 18.5806 49.04 15.4097C49.04 13.8325 49.4329 12.6289 50.2188 11.7988C51.0046 10.9632 52.1307 10.5454 53.5972 10.5454C54.6707 10.5454 55.6336 10.7557 56.4858 11.1763L55.7388 13.1353C55.3403 12.9748 54.9696 12.8447 54.6265 12.7451C54.2834 12.64 53.9403 12.5874 53.5972 12.5874C52.2801 12.5874 51.6216 13.5226 51.6216 15.3931C51.6216 17.2082 52.2801 18.1157 53.5972 18.1157C54.0841 18.1157 54.5352 18.0521 54.9502 17.9248C55.3652 17.792 55.7803 17.5872 56.1953 17.3105V19.4771C55.7858 19.7371 55.3708 19.917 54.9502 20.0166C54.5352 20.1162 54.0094 20.166 53.373 20.166ZM66.6626 20H64.1309V14.5796C64.1309 13.91 64.0174 13.4092 63.7905 13.0771C63.5692 12.7396 63.2178 12.5708 62.7363 12.5708C62.0889 12.5708 61.6185 12.8088 61.3252 13.2847C61.0319 13.7606 60.8853 14.5436 60.8853 15.6338V20H58.3535V10.7197H60.2876L60.6279 11.9067H60.769C61.0181 11.4806 61.3778 11.1486 61.8481 10.9106C62.3185 10.6672 62.8581 10.5454 63.4668 10.5454C64.8558 10.5454 65.7965 10.9992 66.2891 11.9067H66.5132C66.7622 11.4751 67.1274 11.1403 67.6089 10.9023C68.0959 10.6644 68.6437 10.5454 69.2524 10.5454C70.3039 10.5454 71.098 10.8166 71.6348 11.3589C72.1771 11.8957 72.4482 12.759 72.4482 13.9487V20H69.9082V14.5796C69.9082 13.91 69.7948 13.4092 69.5679 13.0771C69.3465 12.7396 68.9951 12.5708 68.5137 12.5708C67.8939 12.5708 67.429 12.7922 67.1191 13.2349C66.8148 13.6776 66.6626 14.3804 66.6626 15.3433V20ZM78.8979 12.3467C78.3612 12.3467 77.9406 12.5182 77.6362 12.8613C77.3319 13.1989 77.1576 13.6803 77.1133 14.3057H80.666C80.6549 13.6803 80.4917 13.1989 80.1763 12.8613C79.8608 12.5182 79.4347 12.3467 78.8979 12.3467ZM79.2549 20.166C77.7607 20.166 76.5931 19.7537 75.752 18.9292C74.9108 18.1047 74.4902 16.937 74.4902 15.4263C74.4902 13.8713 74.8776 12.6704 75.6523 11.8237C76.4326 10.9715 77.509 10.5454 78.8813 10.5454C80.1929 10.5454 81.2139 10.9189 81.9443 11.666C82.6748 12.4131 83.04 13.4451 83.04 14.7622V15.9907H77.0552C77.0828 16.7101 77.2959 17.2718 77.6943 17.6758C78.0928 18.0798 78.6517 18.2817 79.3711 18.2817C79.93 18.2817 80.4585 18.2236 80.9565 18.1074C81.4546 17.9912 81.9748 17.8058 82.5171 17.5513V19.5103C82.0744 19.7316 81.6012 19.8949 81.0977 20C80.5941 20.1107 79.9798 20.166 79.2549 20.166ZM88.0371 20.166C86.9469 20.166 86.0892 19.7427 85.4639 18.896C84.8441 18.0493 84.5342 16.8761 84.5342 15.3765C84.5342 13.8547 84.8496 12.6704 85.4805 11.8237C86.1169 10.9715 86.9912 10.5454 88.1035 10.5454C89.2712 10.5454 90.1621 10.9992 90.7764 11.9067H90.8594C90.7321 11.215 90.6685 10.598 90.6685 10.0557V7.08398H93.2085V20H91.2661L90.7764 18.7964H90.6685C90.0929 19.7095 89.2158 20.166 88.0371 20.166ZM88.9253 18.1489C89.5728 18.1489 90.0459 17.9608 90.3447 17.5845C90.6491 17.2082 90.8151 16.569 90.8428 15.667V15.3931C90.8428 14.397 90.6878 13.6831 90.3779 13.2515C90.0736 12.8198 89.5755 12.604 88.8838 12.604C88.3193 12.604 87.8794 12.8447 87.564 13.3262C87.2541 13.8021 87.0991 14.4966 87.0991 15.4097C87.0991 16.3228 87.2568 17.009 87.5723 17.4683C87.8877 17.922 88.3387 18.1489 88.9253 18.1489ZM95.7485 8.3208C95.7485 7.49626 96.2078 7.08398 97.1265 7.08398C98.0451 7.08398 98.5044 7.49626 98.5044 8.3208C98.5044 8.7137 98.3882 9.02083 98.1558 9.24219C97.9289 9.45801 97.5858 9.56592 97.1265 9.56592C96.2078 9.56592 95.7485 9.15088 95.7485 8.3208ZM98.3882 20H95.8564V10.7197H98.3882V20ZM104.821 20.166C101.933 20.166 100.488 18.5806 100.488 15.4097C100.488 13.8325 100.881 12.6289 101.667 11.7988C102.453 10.9632 103.579 10.5454 105.045 10.5454C106.119 10.5454 107.082 10.7557 107.934 11.1763L107.187 13.1353C106.789 12.9748 106.418 12.8447 106.075 12.7451C105.732 12.64 105.389 12.5874 105.045 12.5874C103.728 12.5874 103.07 13.5226 103.07 15.3931C103.07 17.2082 103.728 18.1157 105.045 18.1157C105.532 18.1157 105.983 18.0521 106.398 17.9248C106.813 17.792 107.229 17.5872 107.644 17.3105V19.4771C107.234 19.7371 106.819 19.917 106.398 20.0166C105.983 20.1162 105.458 20.166 104.821 20.166ZM115.695 20L115.206 18.7383H115.139C114.713 19.2751 114.273 19.6486 113.819 19.8589C113.371 20.0636 112.785 20.166 112.06 20.166C111.169 20.166 110.466 19.9115 109.951 19.4023C109.442 18.8932 109.188 18.1683 109.188 17.2275C109.188 16.2425 109.531 15.5176 110.217 15.0527C110.909 14.5824 111.949 14.3223 113.338 14.2725L114.948 14.2227V13.8159C114.948 12.8752 114.467 12.4048 113.504 12.4048C112.762 12.4048 111.891 12.6289 110.889 13.0771L110.051 11.3672C111.119 10.8083 112.303 10.5288 113.604 10.5288C114.849 10.5288 115.803 10.8 116.467 11.3423C117.131 11.8846 117.463 12.7091 117.463 13.8159V20H115.695ZM114.948 15.7002L113.969 15.7334C113.233 15.7555 112.685 15.8883 112.325 16.1318C111.965 16.3753 111.786 16.7461 111.786 17.2441C111.786 17.958 112.195 18.3149 113.014 18.3149C113.601 18.3149 114.068 18.1462 114.417 17.8086C114.771 17.471 114.948 17.0228 114.948 16.4639V15.7002ZM122.61 20H120.078V7.08398H122.61V20Z" fill="#210D4A"/>
<path d="M18.3423 24.7357V27.8116H12.6577V12.6578H15.1699V9.45312H9.45299V18.3425H3.18857V12.6578H6.26442V9.45312H2.96312C1.33662 9.45312 0 10.7897 0 12.4162V18.5679C0 20.1944 1.33662 21.531 2.96312 21.531H9.45299V28.0209C9.45299 29.6474 10.7735 30.984 12.4161 30.984H18.5678C20.1943 30.984 21.5309 29.6474 21.5309 28.0209V24.7196H18.3423V24.7357Z" fill="#3E83FF"/>
<path d="M28.037 9.45299H21.5471V2.96312C21.5471 1.33662 20.2266 0 18.584 0H12.4162C10.7897 0 9.45312 1.33662 9.45312 2.96312V6.26442H12.6417V3.18857H18.3425V18.3423H15.8464V21.5309H21.5471V12.6577H27.8116V18.3584H24.7357V21.547H28.037C29.6635 21.547 31.0001 20.2104 31.0001 18.5839V12.4161C31.0001 10.7896 29.6635 9.45299 28.037 9.45299Z" fill="#210D4A"/>
</svg>
