<svg width="15" height="15" viewBox="0 0 15 15" fill="none" xmlns="http://www.w3.org/2000/svg">
<path fill-rule="evenodd" clip-rule="evenodd" d="M7.54017 11.9605L2.99012 14.8042V11.9605H1.49506C0.66936 11.9605 0 11.2911 0 10.4654V1.49506C0 0.66936 0.66936 0 1.49506 0H13.4555C14.2812 0 14.9506 0.66936 14.9506 1.49506V10.4654C14.9506 11.2911 14.2812 11.9605 13.4555 11.9605H7.54017ZM4.48517 12.1068L7.11139 10.4654H13.4555V1.49506H1.49506V10.4654H4.48517V12.1068ZM9.93683 3.20912L6.72777 6.41818L5.01377 4.70418L3.9566 5.76134L6.72777 8.53251L10.994 4.26628L9.93683 3.20912Z" fill="#DD3D9E"/>
</svg>
