<svg width="17" height="15" viewBox="0 0 17 15" fill="none" xmlns="http://www.w3.org/2000/svg">
<path fill-rule="evenodd" clip-rule="evenodd" d="M6.9987 0H10.332C11.2525 0 11.9987 0.746192 11.9987 1.66667V2.5H15.332C16.2525 2.5 16.9987 3.24619 16.9987 4.16667V13.3333C16.9987 14.2538 16.2525 15 15.332 15H1.9987C1.07822 15 0.332031 14.2538 0.332031 13.3333V4.16667C0.332031 3.24619 1.07822 2.5 1.9987 2.5H5.33203V1.66667C5.33203 0.746192 6.07822 0 6.9987 0ZM1.99872 4.16667H5.33203H11.9987H15.3321V8.33333H9.4987H7.83203H1.99872V4.16667ZM1.99872 13.3333V10H7.83203V10.8333H9.4987V10H15.3321V13.3333H1.99872ZM10.332 1.66667V2.5H6.9987V1.66667H10.332Z" fill="#3E83FF"/>
</svg>
