<svg width="15" height="17" viewBox="0 0 15 17" fill="none" xmlns="http://www.w3.org/2000/svg">
<path fill-rule="evenodd" clip-rule="evenodd" d="M10.0459 0H1.99858C1.14505 0 0.453125 0.691923 0.453125 1.54545V15.4545C0.453125 16.3081 1.14505 17 1.99858 17H12.8168C13.6703 17 14.3622 16.3081 14.3622 15.4545V4.31629L10.0459 0ZM1.9986 1.54569H9.4058L9.63252 1.77241H8.18039V5.63605C8.18039 6.48958 8.87231 7.1815 9.72584 7.1815H12.8168V15.4548H1.9986V1.54569ZM9.72584 5.63605V1.86574L12.8168 4.95668V5.63605H9.72584ZM9.9522 8.9539L6.63496 12.2711L4.86318 10.4994L3.77038 11.5922L6.63496 14.4567L11.045 10.0467L9.9522 8.9539Z" fill="#8141E7"/>
</svg>
