<svg width="14" height="16" viewBox="0 0 14 16" fill="none" xmlns="http://www.w3.org/2000/svg">
<path fill-rule="evenodd" clip-rule="evenodd" d="M4.45057 0.727273C4.99768 0.263982 5.79109 0 6.63535 0C7.47961 0 8.27302 0.263982 8.82014 0.727273H9.54444C10.3478 0.727273 10.999 1.37849 10.999 2.18182V2.18199H11.7262C12.5295 2.18199 13.1808 2.83321 13.1808 3.63653V14.5456C13.1808 15.3489 12.5295 16.0002 11.7262 16.0002H1.54439C0.741066 16.0002 0.0898438 15.3489 0.0898438 14.5456V3.63653C0.0898438 2.83321 0.741066 2.18199 1.54439 2.18199H2.27171V2.18182C2.27171 1.37849 2.92294 0.727273 3.72626 0.727273H4.45057ZM9.54444 4.36364C10.0828 4.36364 10.5528 4.0712 10.8043 3.63653H11.7262V14.5456H1.54439V3.63653H2.4664C2.71792 4.0712 3.18794 4.36364 3.72626 4.36364H9.54444ZM3.72622 10.9095V9.45496H8.08985V10.9095H3.72622ZM3.72622 6.54504V7.99958H9.5444V6.54504H3.72622ZM5.07721 2.18224L5.29469 1.9316C5.53363 1.65623 6.04579 1.45496 6.63531 1.45496C7.22483 1.45496 7.73699 1.65623 7.97593 1.9316L8.1934 2.18224H9.5444V2.90951H3.72622V2.18224H4.74538H5.07721Z" fill="#FF5C00"/>
</svg>
