<svg width="15" height="15" viewBox="0 0 15 15" fill="none" xmlns="http://www.w3.org/2000/svg">
<path fill-rule="evenodd" clip-rule="evenodd" d="M7.5 15C3.35786 15 0 11.6421 0 7.5C0 3.35786 3.35786 0 7.5 0C11.6421 0 15 3.35786 15 7.5C15 11.6421 11.6421 15 7.5 15ZM7.49998 13.6359C10.889 13.6359 13.6363 10.8886 13.6363 7.49958C13.6363 4.11056 10.889 1.36322 7.49998 1.36322C4.11096 1.36322 1.36362 4.11056 1.36362 7.49958C1.36362 10.8886 4.11096 13.6359 7.49998 13.6359ZM10.8481 9.85094L9.73269 9.06647C9.22449 9.78904 8.39963 10.227 7.49997 10.227C6.60031 10.227 5.77545 9.78904 5.26725 9.06647L4.15186 9.85094C4.91278 10.9328 6.15164 11.5907 7.49997 11.5907C8.8483 11.5907 10.0872 10.9328 10.8481 9.85094ZM8.86362 6.81835V5.45471H10.2273V6.81835H8.86362ZM4.7727 5.45471V6.81835H6.13634V5.45471H4.7727Z" fill="#F0C53E"/>
</svg>
