<svg width="14" height="10" viewBox="0 0 14 10" fill="none" xmlns="http://www.w3.org/2000/svg">
<path fill-rule="evenodd" clip-rule="evenodd" d="M2.0683 1.19318V6.5625L0.875 6.5625V8.35227C0.875 9.01125 1.40921 9.54545 2.06818 9.54545H9.82386V9.54499H9.82398H12.8069C13.4659 9.54499 14.0001 9.01078 14.0001 8.35181V2.98249C14.0001 2.32351 13.4659 1.78931 12.8069 1.78931V1.19318C12.8069 0.534206 12.2727 0 11.6138 0H3.26148C2.6025 0 2.0683 0.534206 2.0683 1.19318ZM11.6138 1.78931V1.19318H3.26148V6.5625L8.63068 6.5625V7.75568H2.06818V8.35227H8.6308V8.35181V2.98249C8.6308 2.32351 9.165 1.78931 9.82398 1.78931H11.6138ZM9.82374 8.35217V2.98285H12.8067V8.35217H9.82374Z" fill="#3E83FF"/>
</svg>
