<svg width="16" height="15" viewBox="0 0 16 15" fill="none" xmlns="http://www.w3.org/2000/svg">
<path d="M9.40805 5.09682L9.57138 5.62539H10.1246H14.0437C14.2828 5.62539 14.3855 5.92889 14.1955 6.07405L10.9824 8.52862L10.5667 8.84621L10.7211 9.34604L11.922 13.2323C11.9939 13.4648 11.7248 13.6525 11.5314 13.5047L8.4553 11.1548L8 10.807L7.5447 11.1548L4.46859 13.5047C4.27517 13.6525 4.00611 13.4648 4.07797 13.2323L5.27887 9.34604L5.43333 8.84621L5.0176 8.52862L1.80453 6.07405C1.6145 5.92888 1.71716 5.62539 1.9563 5.62539H5.87539H6.42862L6.59196 5.09682L7.76115 1.31324C7.83374 1.07833 8.16626 1.07832 8.23886 1.31324L9.40805 5.09682Z" stroke="#FCDD56" stroke-width="1.5"/>
</svg>
