<svg width="28" height="22" viewBox="0 0 28 22" fill="none" xmlns="http://www.w3.org/2000/svg">
<path fill-rule="evenodd" clip-rule="evenodd" d="M23.3542 6.07206C23.3542 2.82406 20.6942 0.164062 17.4462 0.164062C15.4302 0.164062 13.6382 1.17206 12.5742 2.68406C12.9662 2.93606 13.3302 3.21606 13.6662 3.55206C13.8211 3.68116 13.9284 3.81026 14.054 3.96131L14.0862 4.00006C14.7862 2.85206 16.0462 2.09606 17.4742 2.09606C19.6582 2.09606 21.4222 3.86006 21.4222 6.04406C21.4222 8.22806 19.6582 9.99206 17.4742 9.99206C16.6342 9.99206 15.8782 9.74006 15.2342 9.29206C15.0382 9.96406 14.7582 10.5801 14.3942 11.1121C15.2622 11.6721 16.3262 11.9801 17.4462 11.9801C20.6942 11.9801 23.3542 9.32006 23.3542 6.07206ZM25.314 19.8759H18.93V20.9679V21.8359H27.302C27.302 21.53 27.3039 21.2208 27.3059 20.9099L27.3059 20.9094C27.3347 16.3825 27.3657 11.5039 21.366 11.5039C19.658 12.8479 18.51 13.5199 17.334 13.4639C17.81 13.9959 18.174 14.6399 18.398 15.3399C19.546 15.1159 20.722 14.4999 22.038 13.4919C25.006 13.6879 25.286 16.7959 25.314 19.8759ZM2.46504 20.073H16.493C16.465 17.329 16.213 14.557 13.553 14.389C10.529 16.713 8.40104 16.713 5.37704 14.389C2.71704 14.557 2.49304 17.329 2.46504 20.073ZM0.701039 21.837C0.701039 21.538 0.698659 21.2352 0.696265 20.9307C0.664802 16.929 0.630963 12.625 5.96504 12.625C8.93304 14.977 9.99704 14.977 12.965 12.625C18.3195 12.625 18.2893 16.9375 18.2611 20.9716V20.9718C18.2591 21.2622 18.257 21.5512 18.257 21.837H0.701039ZM14.7292 7.77962C14.7292 4.86762 12.3772 2.51562 9.46517 2.51562C6.55317 2.51562 4.20117 4.89562 4.20117 7.77962C4.20117 10.6916 6.55317 13.0436 9.46517 13.0436C12.3772 13.0436 14.7292 10.6916 14.7292 7.77962ZM5.96517 7.77962C5.96517 5.84762 7.53317 4.27962 9.46517 4.27962C11.3972 4.27962 12.9652 5.84762 12.9652 7.77962C12.9652 9.71162 11.3972 11.2796 9.46517 11.2796C7.53317 11.2796 5.96517 9.71162 5.96517 7.77962Z" fill="#8141E7"/>
</svg>
