<svg width="14" height="16" viewBox="0 0 14 16" fill="none" xmlns="http://www.w3.org/2000/svg">
<path fill-rule="evenodd" clip-rule="evenodd" d="M6.54545 16C2.18182 14.0561 0 12.1167 0 10.1818V2.90909C0 2.35084 0.214254 2.2211 0.80722 1.86203C0.986756 1.75331 1.20101 1.62357 1.45455 1.45455C1.57221 1.3761 4.04597 0 6.54545 0C8.72382 0 10.5455 0.727273 11.6364 1.45455C11.8899 1.62357 12.1041 1.75331 12.2837 1.86202L12.2837 1.86203C12.8767 2.2211 13.0909 2.35084 13.0909 2.90909C13.1052 3.06708 13.0982 6.42699 13.0937 8.57796L13.0937 8.58143C13.0921 9.31335 13.0909 9.90484 13.0909 10.1818C13.0909 12.1212 10.9091 14.0606 6.54545 16ZM11.6364 10.1818C11.6364 10.0143 11.6368 9.73367 11.6377 9.27614L11.6406 7.85558L11.6429 6.6253C11.6456 5.00192 11.6449 3.6086 11.6433 3.17766L11.5434 3.11565C11.3082 2.96975 11.0017 2.77959 10.8295 2.6648C9.75587 1.94903 8.18922 1.45455 6.54545 1.45455C4.97315 1.45455 2.92992 2.21911 2.26138 2.6648C2.0892 2.77959 1.7827 2.96974 1.54752 3.11563L1.5475 3.11565L1.45455 3.17333V10.1818C1.45455 11.2789 3.07572 12.7773 6.54613 14.4015C10.0161 12.7809 11.6364 11.2831 11.6364 10.1818ZM8.94034 5.30398L5.81824 8.42608L4.15068 6.75852L3.12216 7.78704L5.81824 10.4831L9.96886 6.3325L8.94034 5.30398Z" fill="#3E83FF"/>
</svg>
