<svg width="26" height="26" viewBox="0 0 26 26" fill="none" xmlns="http://www.w3.org/2000/svg">
<path fill-rule="evenodd" clip-rule="evenodd" d="M24.9326 7.83842L23.1186 9.65236C23.4682 10.7056 23.66 11.8306 23.66 13C23.66 18.8783 18.8774 23.66 13 23.66C7.12227 23.66 2.34 18.878 2.34 13C2.34 7.12198 7.12198 2.34 13 2.34C14.1694 2.34 15.2941 2.53153 16.3474 2.88167L18.1616 1.06744C16.5796 0.381622 14.8344 0 13 0C5.82053 0 0 5.82053 0 13C0 20.1795 5.82053 26 13 26C20.1795 26 26 20.1795 26 13C26 11.1656 25.6187 9.42067 24.9326 7.83842ZM13.3966 12.6034C13.0416 12.2481 13.0416 11.6718 13.3966 11.3164L18.3447 6.36835L18.2531 4.32447C18.241 4.04453 18.3135 3.85704 18.512 3.65915L21.8235 0.347909C22.2072 -0.0360239 22.4833 0.0711539 22.5076 0.613398L22.6312 3.36969L25.3875 3.49275C25.9298 3.51702 26.0372 3.79291 25.6533 4.17684L22.3418 7.48838C22.1433 7.68655 21.9561 7.75878 21.6765 7.74664L19.6326 7.65535L14.6842 12.6034C14.506 12.7808 14.2737 12.8698 14.0403 12.8698C13.8074 12.8698 13.574 12.7811 13.3966 12.6034ZM13.1037 9.75253L13.1213 9.75318L12.4771 10.3974C11.6156 11.2592 11.6156 12.6611 12.4771 13.5223C12.8954 13.94 13.4504 14.1697 14.04 14.1697C14.6302 14.1697 15.1854 13.94 15.6026 13.5229L16.2465 12.8787C16.2486 12.9188 16.25 12.9593 16.25 13C16.25 14.7949 14.7949 16.25 13 16.25C11.2051 16.25 9.75 14.7949 9.75 13C9.75 11.2051 11.2051 9.75 13 9.75C13.0348 9.75 13.0691 9.75126 13.1036 9.75253L13.1037 9.75253ZM12.9999 4.93989C14.1286 4.93989 15.2015 5.17533 16.1768 5.59451L14.332 7.43878C13.9047 7.33564 13.4589 7.27989 12.9999 7.27989C9.8458 7.27989 7.27989 9.8458 7.27989 12.9999C7.27989 16.154 9.84522 18.7199 12.9993 18.7199C16.1534 18.7199 18.7193 16.154 18.7193 12.9999C18.7193 12.5408 18.6633 12.0954 18.5604 11.6675L20.4047 9.82298C20.8244 10.7983 21.0599 11.8709 21.0599 12.9999C21.0599 17.4511 17.4511 21.0599 12.9999 21.0599C8.5484 21.0599 4.93989 17.4511 4.93989 12.9999C4.93989 8.54869 8.5484 4.93989 12.9999 4.93989Z" fill="#3E83FF"/>
</svg>
